PathFileType	4	(X/Y/Z)	5_coords_data.trc
DataRate	CameraRate	NumFrames	NumMarkers	Units	OrigDataRate	OrigDataStartFrame	OrigNumFrames
30.0	30.0	7	21	m	30.0	1	68
Frame#	Time	THUMB_TIP	THUMB_IP	THUMB_MCP	THUMB_CMC	INDEX_TIP	INDEX_DIP	INDEX_PIP	INDEX_MCP	MIDDLE_TIP	MIDDLE_DIP	MIDDLE_PIP	MIDDLE_MCP	RING_TIP	RING_DIP	RING_PIP	RING_MCP	PINKY_TIP	PINKY_DIP	PINKY_PIP	PINKY_MCP	WRIST
X1	Y1	Z1	X2	Y2	Z2	X3	Y3	Z3	X4	Y4	Z4	X5	Y5	Z5	X6	Y6	Z6	X7	Y7	Z7	X8	Y8	Z8	X9	Y9	Z9	X10	Y10	Z10	X11	Y11	Z11	X12	Y12	Z12	X13	Y13	Z13	X14	Y14	Z14	X15	Y15	Z15	X16	Y16	Z16	X17	Y17	Z17	X18	Y18	Z18	X19	Y19	Z19	X20	Y20	Z20	X21	Y21	Z21
0	0.0	-0.048685901641845705	-0.12393699645996094	1.042989990234375	-0.07170110321044922	-0.12141300201416015	1.0490799560546875	-0.08768499755859376	-0.09918190002441406	1.0498199462890625	-0.08121050262451172	-0.07348349761962891	1.05493994140625	-0.04970199966430664	-0.17186700439453126	0.9884569702148438	-0.05502669906616211	-0.15142500305175782	0.991427978515625	-0.058923599243164065	-0.12875199890136718	0.9941199951171875	-0.06301300048828125	-0.09032140350341797	1.0035700073242189	-0.08029889678955078	-0.09643150329589843	1.0541600341796875	-0.06270550155639648	-0.10628299713134766	1.0381199951171876	-0.0486510009765625	-0.12066100311279297	1.025510009765625	-0.04315829849243164	-0.08700119781494141	1.0013499755859374	-0.06409329986572265	-0.09766729736328125	1.061219970703125	-0.05284510040283203	-0.10761299896240234	1.04472998046875	-0.031481000900268556	-0.11831999969482422	1.032260009765625	-0.02736240005493164	-0.08243890380859376	1.0157899780273438	0.0029928500652313234	-0.13776300048828125	1.00452001953125	-0.003171410083770752	-0.1210719985961914	1.013780029296875	-0.01152989959716797	-0.10491300201416015	1.0210399780273438	-0.022110599517822266	-0.08356349945068359	1.034030029296875	-0.06674040222167969	-0.033166999816894534	1.0750799560546875
1	0.03333333333333333	-0.04870589828491211	-0.12304399871826172	1.045550048828125	-0.07143569946289062	-0.12084100341796875	1.0498199462890625	-0.08736519622802734	-0.09994840240478516	1.0499000244140626	-0.07765570068359375	-0.07160140228271485	1.0558399658203126	-0.05048149871826172	-0.17220199584960938	0.990155029296875	-0.05538230133056641	-0.15212800598144532	0.9926649780273438	-0.059694801330566406	-0.1296750030517578	0.9949550170898438	-0.06376210021972656	-0.09034760284423828	1.0038099975585937	-0.06936090087890626	-0.09650070190429688	1.0504100341796876	-0.06094889831542969	-0.10804000091552735	1.04197998046875	-0.04893719863891602	-0.12136799621582031	1.0263299560546875	-0.04341899871826172	-0.0852311019897461	1.0040399780273437	-0.05760580062866211	-0.0944176025390625	1.0633299560546876	-0.04870479965209961	-0.10673400115966797	1.05077001953125	-0.03225600051879883	-0.11880300140380859	1.032030029296875	-0.0273710994720459	-0.08277059936523437	1.0162000122070312	0.0035215799808502187	-0.13797300720214845	1.0039400024414062	-0.003661940097808838	-0.1216009979248047	1.0126799926757812	-0.011677800178527832	-0.10639499664306641	1.0210900268554688	-0.022068300247192384	-0.08376529693603516	1.034989990234375	-0.06501309967041016	-0.03619839859008789	1.0716800537109374
2	0.06666666666666667	-0.04886249923706055	-0.12373200225830078	1.045510009765625	-0.07164700317382812	-0.1213280029296875	1.04975	-0.08752169799804688	-0.10056800079345703	1.04975	-0.07778780364990234	-0.0721249008178711	1.055780029296875	-0.0509989013671875	-0.17302900695800782	0.99060302734375	-0.055840999603271484	-0.15287600708007812	0.9930269775390625	-0.06008200073242188	-0.13042599487304687	0.9951400146484375	-0.06396030044555664	-0.09091439819335938	1.0037000122070312	-0.06967279815673828	-0.09707540130615235	1.0494000244140624	-0.0611052017211914	-0.10876499938964844	1.0416500244140625	-0.049035099029541014	-0.12194200134277344	1.0263800048828124	-0.043564998626708984	-0.08587899780273438	1.003989990234375	-0.05755490112304688	-0.09500260162353516	1.0641099853515625	-0.04875139999389649	-0.10745800018310547	1.050780029296875	-0.032005599975585934	-0.11943699645996093	1.0318900146484375	-0.027537399291992188	-0.08340959930419922	1.0161199951171875	0.0033593800067901612	-0.1385189971923828	1.0039099731445313	-0.0038400399684906	-0.1220469970703125	1.0126799926757812	-0.011819700241088867	-0.1070270004272461	1.0210999755859376	-0.022258699417114256	-0.08434809875488282	1.035239990234375	-0.06516590118408203	-0.03674240112304687	1.0719000244140624
3	0.1	-0.048923198699951174	-0.12391200256347656	1.0460699462890626	-0.07171269989013672	-0.12193199920654296	1.0499599609375	-0.08756410217285156	-0.10121499633789062	1.0498199462890625	-0.07797540283203125	-0.0727052001953125	1.0558499755859374	-0.05115459823608398	-0.1736840057373047	0.9910009765625	-0.05600640106201172	-0.15354400634765625	0.9933209838867187	-0.060252498626708985	-0.13108799743652344	0.9953380126953125	-0.06407350158691406	-0.0915968017578125	1.0035900268554687	-0.06948799896240235	-0.09779350280761719	1.05027001953125	-0.06139640045166016	-0.10906700134277343	1.0415999755859375	-0.048949100494384765	-0.12232599639892579	1.026260009765625	-0.043767101287841795	-0.08642859649658204	1.0040700073242188	-0.057901298522949216	-0.09610530090332031	1.0640400390625	-0.048982498168945315	-0.10777100372314453	1.0506600341796875	-0.032364601135253905	-0.119927001953125	1.0321099853515625	-0.027730600357055664	-0.08395140075683594	1.0162000122070312	0.0031816599369049073	-0.13902499389648437	1.0040599975585938	-0.004018209934234619	-0.12253199768066406	1.0127100219726564	-0.011953700065612792	-0.10751799774169922	1.021010009765625	-0.02230940055847168	-0.08480519866943359	1.034949951171875	-0.065322998046875	-0.037265998840332035	1.0715899658203125
4	0.13333333333333333	-0.04885329818725586	-0.1245199966430664	1.0457099609375	-0.07171549987792969	-0.12228399658203125	1.0500799560546874	-0.08783260345458985	-0.10155999755859375	1.0497900390625	-0.0780989990234375	-0.07294960021972656	1.0556500244140625	-0.05123640060424805	-0.17413099670410156	0.99110498046875	-0.056151199340820315	-0.15392999267578125	0.9934539794921875	-0.06040879821777344	-0.131468994140625	0.99539501953125	-0.06437960052490234	-0.09197830200195313	1.0036500244140625	-0.06920339965820313	-0.09821659851074219	1.0501099853515625	-0.06155820083618164	-0.10963800048828125	1.0419000244140626	-0.04903860092163086	-0.12269300079345703	1.026219970703125	-0.0439989013671875	-0.08682720184326172	1.0039400024414062	-0.05781900024414063	-0.0962323989868164	1.06325	-0.04914810180664062	-0.10821700286865234	1.0505799560546876	-0.032399501800537106	-0.1202490005493164	1.032	-0.027927900314331056	-0.0843019027709961	1.0160800170898439	0.003002769947052002	-0.13944500732421874	1.004	-0.004179709911346434	-0.12291300201416015	1.0126799926757812	-0.012102899551391601	-0.107875	1.0207999877929688	-0.022495899200439453	-0.08518049621582031	1.0349000244140625	-0.06559230041503906	-0.03744879913330078	1.0714300537109376
5	0.16666666666666666	-0.04930319976806641	-0.12444999694824219	1.0458699951171875	-0.0719697036743164	-0.12270800018310547	1.04975	-0.08789080047607421	-0.10190299987792968	1.050010009765625	-0.07834960174560547	-0.07327290344238281	1.055699951171875	-0.05144169998168945	-0.17439799499511718	0.9911339721679687	-0.05634560012817383	-0.15421400451660155	0.9934609985351562	-0.060611198425292966	-0.13178700256347656	0.995375	-0.06462950134277344	-0.09221410369873047	1.00352001953125	-0.06967939758300781	-0.09840080261230469	1.049699951171875	-0.06169409942626953	-0.10975599670410156	1.04177001953125	-0.04922190093994141	-0.12293699645996094	1.0261300048828126	-0.044270301818847654	-0.08704229736328126	1.0039299926757812	-0.05843180084228516	-0.09669059753417969	1.064760009765625	-0.04924089813232422	-0.10873600006103516	1.0506500244140624	-0.032633201599121094	-0.12049500274658204	1.0319200439453124	-0.02815399932861328	-0.08452339935302734	1.0160399780273437	0.002819960117340088	-0.13961300659179687	1.0038599853515624	-0.004364439964294434	-0.12311299896240234	1.012510009765625	-0.012286499977111816	-0.10810399627685546	1.0208400268554687	-0.022600500106811524	-0.08542340087890625	1.034699951171875	-0.06574569702148438	-0.037816699981689454	1.07127001953125
6	0.2	-0.04977299880981445	-0.12466000366210937	1.045489990234375	-0.07216380310058594	-0.12276000213623046	1.049719970703125	-0.088216796875	-0.10200800323486328	1.049739990234375	-0.0786688003540039	-0.07340409851074219	1.0556700439453126	-0.05180189895629883	-0.1745709991455078	0.9911610107421875	-0.0566786994934082	-0.154322998046875	0.9934459838867188	-0.06094309997558594	-0.13186700439453125	0.99531201171875	-0.0649551010131836	-0.09229250335693359	1.00347998046875	-0.06988749694824219	-0.09851270294189453	1.0498499755859374	-0.06191120147705078	-0.1098489990234375	1.0415999755859375	-0.049620498657226564	-0.12302300262451171	1.0260799560546876	-0.04452899932861328	-0.087206298828125	1.0036400146484374	-0.05889279937744141	-0.09700830078125	1.064989990234375	-0.049626300811767575	-0.10859100341796875	1.0503499755859376	-0.03288719940185547	-0.12051799774169922	1.0315799560546874	-0.02845280075073242	-0.08462850189208984	1.0158300170898438	0.0024812800884246823	-0.1397449951171875	1.003739990234375	-0.004676959991455078	-0.12316400146484376	1.0123499755859375	-0.012618900299072266	-0.10812999725341797	1.0206300048828125	-0.023021400451660155	-0.08534980010986327	1.0348199462890626	-0.06610209655761719	-0.0379114990234375	1.07106005859375
